<svg width="56" height="56" viewBox="0 0 56 56" fill="none" xmlns="http://www.w3.org/2000/svg">
<g clip-path="url(#clip0_684_3150)">
<path d="M16.334 30.333H14.0007C11.4233 30.333 9.33398 32.4223 9.33398 34.9997V41.9997C9.33398 44.577 11.4233 46.6663 14.0007 46.6663H16.334C18.9113 46.6663 21.0007 44.577 21.0007 41.9997V34.9997C21.0007 32.4223 18.9113 30.333 16.334 30.333Z" stroke="black" stroke-width="2" stroke-linecap="round" stroke-linejoin="round"/>
<path d="M42 30.333H39.6667C37.0893 30.333 35 32.4223 35 34.9997V41.9997C35 44.577 37.0893 46.6663 39.6667 46.6663H42C44.5773 46.6663 46.6667 44.577 46.6667 41.9997V34.9997C46.6667 32.4223 44.5773 30.333 42 30.333Z" stroke="black" stroke-width="2" stroke-linecap="round" stroke-linejoin="round"/>
<path d="M9.33398 34.9997V27.9997C9.33398 23.049 11.3006 18.301 14.8013 14.8003C18.302 11.2997 23.0499 9.33301 28.0007 9.33301C32.9514 9.33301 37.6993 11.2997 41.2 14.8003C44.7007 18.301 46.6673 23.049 46.6673 27.9997V34.9997" stroke="black" stroke-width="2" stroke-linecap="round" stroke-linejoin="round"/>
</g>
<defs>
<clipPath id="clip0_684_3150">
<rect width="56" height="56" fill="white"/>
</clipPath>
</defs>
</svg>
